<?xml version="1.0" encoding="utf-8"?>
<!-- Generator: Adobe Illustrator 16.0.0, SVG Export Plug-In . SVG Version: 6.00 Build 0)  -->
<!DOCTYPE svg PUBLIC "-//W3C//DTD SVG 1.1//EN" "http://www.w3.org/Graphics/SVG/1.1/DTD/svg11.dtd">
<svg version="1.1" id="node" xmlns="http://www.w3.org/2000/svg" xmlns:xlink="http://www.w3.org/1999/xlink" x="0px" y="0px"
	 width="150px" height="150px" viewBox="0 0 150 150" enable-background="new 0 0 150 150" xml:space="preserve">
<path opacity="0.5" d="M74.281,113.363c-0.413,0-0.824-0.109-1.187-0.318l-3.776-2.236c-0.565-0.314-0.29-0.427-0.104-0.491
	c0.752-0.263,0.904-0.322,1.708-0.778c0.084-0.049,0.194-0.031,0.28,0.02l2.902,1.722c0.104,0.057,0.254,0.057,0.35,0l11.315-6.53
	c0.104-0.059,0.171-0.181,0.171-0.306V91.389c0-0.13-0.067-0.246-0.174-0.312l-11.31-6.524c-0.104-0.063-0.244-0.063-0.349,0
	l-11.307,6.524c-0.109,0.063-0.18,0.185-0.18,0.31v13.056c0,0.123,0.068,0.243,0.176,0.302l3.099,1.791
	c1.683,0.84,2.71-0.15,2.71-1.148V92.502c0-0.185,0.144-0.325,0.329-0.325h1.433c0.178,0,0.325,0.141,0.325,0.325v12.891
	c0,2.244-1.223,3.532-3.35,3.532c-0.655,0-1.17,0-2.608-0.708l-2.968-1.711c-0.733-0.425-1.187-1.217-1.187-2.063V91.387
	c0-0.85,0.453-1.644,1.187-2.063l11.325-6.533c0.717-0.404,1.668-0.404,2.379,0l11.311,6.535c0.73,0.423,1.187,1.214,1.187,2.063
	v13.056c0,0.848-0.456,1.637-1.187,2.062l-11.311,6.533c-0.362,0.21-0.773,0.318-1.193,0.318"/>
<path opacity="0.5" d="M77.776,104.366c-4.951,0-5.988-2.272-5.988-4.178c0-0.181,0.146-0.327,0.327-0.327h1.461
	c0.162,0,0.299,0.118,0.323,0.278c0.221,1.488,0.878,2.239,3.871,2.239c2.385,0,3.398-0.537,3.398-1.803
	c0-0.728-0.289-1.269-3.993-1.632c-3.099-0.306-5.013-0.987-5.013-3.466c0-2.282,1.926-3.641,5.152-3.641
	c3.622,0,5.417,1.257,5.644,3.959c0.009,0.093-0.026,0.183-0.088,0.25c-0.063,0.066-0.149,0.106-0.24,0.106h-1.469
	c-0.154,0-0.288-0.108-0.318-0.255c-0.354-1.566-1.21-2.067-3.535-2.067c-2.602,0-2.904,0.905-2.904,1.586
	c0,0.823,0.356,1.064,3.867,1.528c3.479,0.462,5.129,1.114,5.129,3.558c0,2.463-2.056,3.877-5.641,3.877 M91.54,90.535h0.379
	c0.313,0,0.371-0.219,0.371-0.347c0-0.334-0.229-0.334-0.356-0.334h-0.391L91.54,90.535z M91.078,89.464h0.841
	c0.29,0,0.855,0,0.855,0.645c0,0.451-0.289,0.544-0.461,0.602c0.337,0.023,0.359,0.243,0.405,0.556
	c0.022,0.194,0.059,0.531,0.127,0.646h-0.52c-0.013-0.114-0.092-0.736-0.092-0.771c-0.035-0.139-0.082-0.206-0.255-0.206h-0.429
	v0.979h-0.473V89.464z M90.067,90.682c0,1.014,0.819,1.835,1.823,1.835c1.015,0,1.832-0.839,1.832-1.835
	c0-1.017-0.829-1.824-1.835-1.824c-0.99,0-1.823,0.797-1.823,1.822 M94.075,90.688c0,1.2-0.983,2.181-2.182,2.181
	c-1.188,0-2.18-0.969-2.18-2.181c0-1.236,1.013-2.181,2.18-2.181c1.176,0,2.179,0.948,2.179,2.181"/>
<path d="M39.246,62.28c0-0.521-0.274-1-0.724-1.259L26.526,54.12c-0.202-0.119-0.429-0.182-0.659-0.19h-0.124
	c-0.229,0.008-0.456,0.071-0.662,0.19l-11.995,6.901c-0.446,0.26-0.726,0.739-0.726,1.26l0.026,18.588
	c0,0.259,0.134,0.498,0.359,0.626c0.222,0.137,0.499,0.137,0.72,0l7.131-4.083c0.45-0.269,0.726-0.742,0.726-1.257v-8.685
	c0-0.518,0.274-0.997,0.724-1.254l3.035-1.749c0.226-0.13,0.474-0.195,0.726-0.195c0.248,0,0.501,0.064,0.72,0.195l3.035,1.748
	c0.449,0.258,0.725,0.736,0.725,1.254v8.684c0,0.516,0.278,0.991,0.727,1.257l7.127,4.081c0.223,0.133,0.502,0.133,0.725,0
	c0.22-0.127,0.359-0.368,0.359-0.626L39.246,62.28z M95.849,71.958c0,0.129-0.069,0.25-0.182,0.313l-4.119,2.375
	c-0.111,0.063-0.251,0.063-0.362,0l-4.12-2.375c-0.112-0.064-0.181-0.184-0.181-0.313v-4.756c0-0.129,0.068-0.249,0.178-0.314
	l4.118-2.379c0.112-0.065,0.252-0.065,0.365,0l4.12,2.379c0.113,0.065,0.181,0.185,0.181,0.314L95.849,71.958z M96.962,36.728
	c-0.226-0.125-0.498-0.122-0.721,0.007c-0.221,0.131-0.357,0.368-0.357,0.626V55.77c0,0.181-0.097,0.348-0.253,0.439
	c-0.155,0.09-0.35,0.09-0.507,0l-3.005-1.73c-0.448-0.259-0.999-0.259-1.447,0l-12,6.925c-0.447,0.258-0.725,0.736-0.725,1.251
	v13.854c0,0.518,0.277,0.993,0.725,1.255l12,6.929c0.447,0.258,0.999,0.258,1.448,0l12-6.933c0.447-0.261,0.725-0.736,0.725-1.254
	V41.978c0-0.525-0.286-1.008-0.745-1.266L96.962,36.728z M136.92,67.077c0.444-0.259,0.72-0.737,0.72-1.252v-3.357
	c0-0.517-0.275-0.993-0.722-1.253l-11.924-6.921c-0.449-0.26-1.002-0.26-1.452,0l-11.996,6.924
	c-0.449,0.261-0.726,0.736-0.726,1.255v13.848c0,0.521,0.282,1.002,0.731,1.26l11.92,6.794c0.438,0.252,0.978,0.254,1.422,0.009
	l7.21-4.008c0.227-0.127,0.371-0.368,0.371-0.628c0-0.262-0.139-0.505-0.365-0.632l-12.07-6.927
	c-0.227-0.127-0.365-0.368-0.365-0.625v-4.345c0-0.259,0.136-0.499,0.362-0.627l3.756-2.167c0.224-0.13,0.499-0.13,0.722,0
	l3.759,2.167c0.224,0.127,0.362,0.368,0.362,0.626v3.416c0,0.257,0.139,0.498,0.362,0.628c0.224,0.128,0.501,0.128,0.725-0.002
	L136.92,67.077z"/>
<path opacity="0.5" d="M124.094,66.428c0.085-0.05,0.191-0.05,0.277,0l2.301,1.329c0.087,0.05,0.141,0.142,0.141,0.241v2.659
	c0,0.099-0.054,0.192-0.141,0.241l-2.301,1.328c-0.086,0.051-0.192,0.051-0.277,0l-2.301-1.328
	c-0.089-0.049-0.142-0.142-0.142-0.241v-2.659c0-0.099,0.05-0.191,0.139-0.241L124.094,66.428z"/>
<g opacity="0.2">
	<defs>
		<path id="SVGID_1_" opacity="0.2" d="M57.877,54.361l-11.93,6.886c-0.447,0.258-0.723,0.734-0.723,1.248v13.782
			c0,0.515,0.275,0.99,0.723,1.249l11.931,6.892c0.446,0.256,0.996,0.256,1.441,0l11.93-6.892c0.445-0.259,0.721-0.734,0.721-1.249
			V62.495c0-0.514-0.275-0.99-0.723-1.248l-11.929-6.886c-0.223-0.128-0.473-0.193-0.722-0.193s-0.498,0.064-0.723,0.193"/>
	</defs>
	<use xlink:href="#SVGID_1_"  overflow="visible"/>
	<clipPath id="SVGID_2_">
		<use xlink:href="#SVGID_1_"  overflow="visible"/>
	</clipPath>
	<g transform="translate(-78.306 -164.016)" clip-path="url(#SVGID_2_)">
		<path d="M162.332,224.094l-33.62-16.479l-17.238,35.165l33.619,16.48L162.332,224.094z"/>
	</g>
</g>
<g opacity="0.2">
	<defs>
		<path id="SVGID_3_" opacity="0.2" d="M45.521,77.152c0.113,0.148,0.256,0.277,0.425,0.374l10.234,5.911l1.704,0.979
			c0.256,0.147,0.547,0.21,0.832,0.188c0.095-0.008,0.19-0.025,0.282-0.052l12.584-23.041c-0.097-0.105-0.208-0.193-0.336-0.266
			l-7.812-4.512l-4.129-2.375c-0.118-0.068-0.245-0.116-0.374-0.15L45.521,77.152z"/>
	</defs>
	<use xlink:href="#SVGID_3_"  overflow="visible"/>
	<clipPath id="SVGID_4_">
		<use xlink:href="#SVGID_3_"  overflow="visible"/>
	</clipPath>
	<g transform="translate(-78.306 -164.016)" clip-path="url(#SVGID_4_)">
		<path d="M109.29,228.968l23.74,32.129l31.396-23.195l-23.741-32.129L109.29,228.968z"/>
	</g>
</g>
<g opacity="0.2">
	<defs>
		<path id="SVGID_5_" opacity="0.2" d="M58.454,54.177c-0.2,0.02-0.396,0.082-0.576,0.185L45.98,61.228L58.81,84.595
			c0.178-0.025,0.354-0.085,0.512-0.177l11.932-6.892c0.368-0.214,0.62-0.576,0.697-0.985L58.872,54.2
			c-0.097-0.019-0.192-0.029-0.293-0.029c-0.038,0-0.078,0.002-0.118,0.006"/>
	</defs>
	<use xlink:href="#SVGID_5_"  overflow="visible"/>
	<clipPath id="SVGID_6_">
		<use xlink:href="#SVGID_5_"  overflow="visible"/>
	</clipPath>
	<g transform="translate(-78.306 -164.016)" clip-path="url(#SVGID_6_)">
		<path d="M124.286,218.187v30.424h25.965v-30.424H124.286z"/>
	</g>
</g>
</svg>
