<?xml version="1.0" encoding="utf-8"?>
<!-- Generator: Adobe Illustrator 16.0.0, SVG Export Plug-In . SVG Version: 6.00 Build 0)  -->
<!DOCTYPE svg PUBLIC "-//W3C//DTD SVG 1.1//EN" "http://www.w3.org/Graphics/SVG/1.1/DTD/svg11.dtd">
<svg version="1.1" xmlns="http://www.w3.org/2000/svg" xmlns:xlink="http://www.w3.org/1999/xlink" x="0px" y="0px"
	 width="618.41px" height="800px" viewBox="0 0 618.41 800" enable-background="new 0 0 618.41 800" xml:space="preserve">
<g id="Layer_1">
	<g opacity="0.5">
		<path fill-rule="evenodd" clip-rule="evenodd" d="M280.91,801.25c-0.601-3.559-1.2-7.117-1.945-11.533
			c10.521,3.025,17.347-3.31,25.213-6.189c3.043-1.113,6.466-1.188,9.822-1.053c2.686-0.881,5.334-1.909,8.067-2.602
			c3.191-0.807,6.625-0.972,3.91-5.913c-0.524-0.953,0.749-3.939,1.949-4.587c3.028-1.638,6.419-2.781,9.794-3.547
			c3.135-0.711,6.348-1.218,9.277,1.48c5.261,4.847,10.827,9.362,16.793,14.469c1.842-2.333,3.729-4.231,5.025-6.472
			c2.466-4.261,5.804-6.517,10.54-4.446c4.261,1.861,6.53-0.338,8.995-3.072c1.48-1.644,3.241-3.035,5.01-4.664
			c7.063,10.634,11.681-1.745,18.312-1.192c-11.28-5.719-5.992-17.256-9.837-25.596c-2.289-4.964-4.478-9.662-8.12-13.598
			c-4.052-4.376-8.156-8.325-7.909-15.228c0.079-2.201-3.299-4.527-5.23-7.577c9.313,4.31,16.884-1.397,26.18-4.478
			c0.96,7.514,1.91,14.652,7.635,18.237c4.699-0.668,9.17-1.331,13.649-1.931c5.112-0.685,10.233-1.3,15.346-1.975
			c0.82-0.108,1.745-0.732,2.412-0.504c12.056,4.122,15.276-6.474,21.438-12.154c-2.705-1.883-7.129-3.842-6.931-5.017
			c0.831-4.892,2.019-10.358,4.976-14.122c6.548-8.332,15.684-13.739,24.843-19.076c10.085-5.876,16.481-15.532,16.822-26.828
			c0.267-8.817-3.697-17.72-5.412-26.655c-1.014-5.272-3.417-10.601,0.56-15.984c2.435-3.294,5.305-4.952,8.857-6.991
			c10.516-6.032,21.53-12.043,28.42-22.78c4.982-7.767,11.178-14.354,19.408-18.499c3.117-1.569,7.133-1.357,11.123-2.021
			c-1.921-8.838-12.478,1.949-13.668-7.526c4.186-6.686,8.659-7.976,17.665-5.155c3.659,1.146,7.868,4.817,12.621-0.85
			c-4.081-0.545-7.507-1.002-12.465-1.664c2.729-2.047,4.167-3.123,6.251-4.688c-6.379,0.355-11.857,0.662-18.688,1.043
			c3.828-5.868,7.057-10.816,10.563-16.189c-1.067-0.983-2.468-2.272-3.451-3.18c2.765-5.915,5.353-11.455,8.023-17.172
			c-6.416-3.342-2.704-8.975-3.41-15.05c2.627,1.499,4.125,2.354,7.177,4.096c-1.119-14.448-2.167-27.953-3.282-42.358
			c5.177,4.12,6.674,1.173,9.071-2.646c6.952-11.079,8.882-25.118,19.319-33.971c3.969-3.366,9.314-5.109,14.031-7.592
			c0,138.334,0,276.666,0,415C506.744,801.25,393.827,801.25,280.91,801.25z M597.545,417.31c-0.713,0.13-1.426,0.259-2.139,0.388
			c-2.258,5.529-9.338,10.055-3.68,17.239c1.773,2.252,4.603,3.673,7.875,6.186c-0.623,0.771-2.305,2.63-3.722,4.675
			c-0.921,1.328-2.329,3.153-2.011,4.355c1.2,4.514,3.02,8.861,4.716,13.572c11.402-9.41,12.251-22.453,12.101-36.045
			c-3.418,0.454-6.404,0.852-8.957,1.191C600.176,424.58,598.86,420.945,597.545,417.31z M572.766,539.355
			c3.811-1.948,7.607-3.889,12.397-6.338C574.532,532.818,571.8,534.389,572.766,539.355z"/>
		<path fill-rule="evenodd" clip-rule="evenodd" d="M265.91,1.25c-0.972,1.767-2.198,3.446-2.848,5.323
			c-0.711,2.055-1.109,4.281-1.235,6.457c-0.121,2.082,0.283,4.192,0.549,7.397c-6.528-6.819-6.49-10.541-1.036-16.244
			c0.619-0.647,0.563-1.94,0.82-2.934C263.41,1.25,264.66,1.25,265.91,1.25z"/>
		<path fill-rule="evenodd" clip-rule="evenodd" d="M252.688,315.616c4.074,2.396,13.012,1.689,15.729-1.426
			c5.382-6.169,10.501-6.948,17.904-3.016c2.073,1.102,4.653,1.286,6.663,2.464c3.203,1.88,6.259,4.077,9.125,6.444
			c3.136,2.588,5.539,6.803,9.057,8.032c6.856,2.395,8.094,7.776,10.318,13.395c3.166,7.996,7.276,15.625,11.127,23.34
			c1.642,3.289,3.489,6.5,5.525,9.56c2.686,4.036,5.647,7.886,8.763,12.191c3.803,0.344,8.083,0.642,12.341,1.138
			c6.729,0.782,11.744,4.409,16.257,9.332c4.244,4.631,9.121,8.682,13.844,13.104c-3.561,13.372,10.131,17.589,16.12,26.526
			c-4.405,1.959-8.071,3.221-11.978-0.688c-1.063-1.064-3.9-0.357-5.876,0.43c3.299,1.594,6.543,3.317,9.908,4.758
			c9.095,3.895,16.745,9.361,21.186,18.559c2.023,4.189,3.898,8.116,0.372,12.687c-6.527,8.456-5.158,12.036,4.979,14.317
			c0.979,0.22,1.925,0.585,3.679,1.128c0.62-2.446,0.815-4.931,1.874-6.966c1.382-2.656,3.063-6.621,5.283-7.133
			c11.729-2.707,23.472-6.614,35.22,1.426c7.217,4.938,10.331,11.54,11.014,19.357c0.643,7.367,0.597,14.992-0.628,22.254
			c-0.807,4.786-4.225,9.137-6.511,13.663c-0.169,0.333-0.949,0.551-0.925,0.763c1.026,9.058-4.487,12.729-10.589,13.617
			c0.266,5.119,2.055,10.126,0.294,12.76c-2.468,3.693-7.577,5.62-12.475,8.921c2.653,0.435,4.189,0.685,6.038,0.987
			c-0.534,1.277-1.041,2.493-1.547,3.708c0.389,0.421,0.779,0.841,1.17,1.262c1.738-1.545,3.479-3.089,5.813-5.161
			c1.47,0.83,3.629,2.053,6.83,3.861c4.151-1.964,9.824-4.648,15.65-7.406c1.075,4.307,2.065,8.125,2.975,11.962
			c0.972,4.102-0.927,6.69-4.469,8.509c-5.361,2.75-8.945,6.615-7.717,11.455c-3.951,2.924-7.106,5.059-10.031,7.472
			c-4.709,3.886-9.14,8.12-13.975,11.835c-1.258,0.965-3.765,1.159-5.377,0.665c-11.917-3.655-21.161,2.993-31.031,7.535
			c-2.41,1.108-5.28,1.522-7.969,1.66c-4.991,0.257-10.006,0.073-15.165,0.073c-3.456,5.812-3.456,5.812-24.111,14.111
			c0.772,2.124,1.554,4.273,2.514,6.915c-4.487,0.395-8.202,0.544-11.855,1.098c-3.068,0.465-6.066,1.402-9.096,2.132
			c0.076,0.512,0.151,1.026,0.228,1.54c-2.025-0.968-4.016-2.019-6.082-2.891c-8.083-3.404-18.984-0.406-25.525,5.378
			c-6.094,5.39-7.753,11.191-6.951,19.063c0.378,3.707-2.669,7.761-4.519,12.58c-1.611-0.402-3.788-0.62-5.679-1.471
			c-8.957-4.027-17.937-3.684-27.032-0.623c-2.14,0.721-4.386,1.122-6.519,1.856c-1.283,0.442-3.437,1.157-3.502,1.898
			c-0.531,6.062-6.016,7.236-9.448,10.508c-2.354,2.245-5.929,5.658-0.356,9.056c-1.687,1.895-3.028,3.4-4.844,5.438
			c-1.682-1.808-3.021-4.002-4.973-5.178c-3.136-1.889-6.528-4.727-10.011,0.144c-1.006,1.406-3.594,1.681-5.457,2.475
			c0.692-2.09,0.794-4.79,2.196-6.143c3.111-3.003,6.802-5.436,10.39-7.906c6.198-4.268,8.311-10.801,10.513-17.495
			c0.819-2.49,3.199-4.475,4.891-6.672c1.304-1.691,2.585-3.405,3.979-5.021c5.979-6.919,6.366-15.332,5.72-23.634
			c10.683-2.963,10.683-2.963,10.283-14.244c9.657-3.977,18.958-9.381,30.436-6.712c5.134,1.194,14.429-4.104,15.26-8.496
			c-6.215,0-12.294,0.083-18.369-0.022c-6.549-0.115-6.547-0.193-7.463-5.358c-3.026-2.355-5.706-4.028-7.855-6.221
			c-2.771-2.827-5.14-4.276-8.077-0.323c-0.706,0.949-1.835,2.002-2.906,2.179c-2.573,0.424-5.228,0.355-7.849,0.486
			c1.077-2.001,2.153-4.003,3.473-6.453c-2.805-1.667-10.573,2.894-8.031-7.473c-7.271,5.703-12.916,10.423-18.904,14.661
			c-1.947,1.38-4.788,1.497-7.22,2.191c-0.229-0.754-0.457-1.509-0.687-2.263c1.136-0.868,2.271-1.736,4.28-3.271
			c-3.449,0-5.908,0-8.15,0c0.233-2.968,0.467-5.936,0.736-9.355c-3.102,0-5.084,0-7.59,0c4.037-6.489,13.102-10.306,8.504-20.306
			c2.34-0.158,3.869-0.256,5.398-0.366c5.06-0.363,10.441,1.991,14.991-2.428c6.701-6.509,12.03-13.643,12.243-23.45
			c0.034-1.582-0.561-3.18-0.889-4.766c-0.534-2.579-0.708-5.315-1.716-7.698c-1.952-4.619-3.695-9.609-6.83-13.356
			c-2.382-2.845-8.856,1.819-11.039,7.841c-1.31,0-2.713-0.181-4.042,0.054c-1.176,0.208-2.27,0.878-4.636,0.246
			c2.774-3.479,5.916-6.735,8.222-10.504c2.218-3.625,3.569-7.779,4.555-10.008c-5.998-3.95-10.503-6.918-15.083-9.935
			c1.328-1.341,3.02-2.248,3.277-3.46c0.756-3.561,5.469-7.059,8.454-5.241c3.643,2.218,6.741,5.331,10.321,8.259
			c3.93-4.33,11.181-5.853,8.827-15.407c2.876,3.687,4.448,5.701,6.02,7.715c0.914-1.911,1.827-3.823,2.302-4.814
			c5.58,0.47,11.004,0.927,16.808,1.415c0-8.032,0-15.595,0-23.533c-2.139-0.203-4.313-0.411-6.486-0.618
			c-2.16-9.395-0.723-12.557,8.304-18.27c-0.346-5.051-0.687-10.044-1.164-17.036c-5.242,4.334-8.874,7.336-13.303,10.996
			c-0.423-1.885-0.992-4.421-1.53-6.82c-1.636-0.65-4.27-0.916-5.585-2.373c-3.702-4.099-7.507-8.354-10.013-13.199
			c-1.712-3.309-2.903-8.426-1.528-11.473c2.89-6.408-3.679-10.545-1.224-16.269c-0.554-0.019-1.106-0.036-1.66-0.054
			c-0.513,1.429-1.004,2.867-1.544,4.287c-0.669,1.759-1.379,3.501-2.07,5.251c-1.295-1.284-2.59-2.568-3.862-3.83
			c-4.147,6.566-4.147,6.566-21.839,3.658c0.834,3.167,1.772,6.728,2.711,10.288c-0.513,0.262-1.024,0.521-1.537,0.781
			c-3.686-2.141-7.239-4.584-11.113-6.304c-2.154-0.957-5.403-1.697-7.131-0.718c-1.609,0.91-1.856,4.228-2.613,6.248
			c-7.235-5.915-8.989-8.864-8.047-15.004c1.257,1.794,2.225,3.177,3.193,4.562c0.405-0.1,0.81-0.199,1.215-0.299
			c-0.264-1.592-0.61-3.175-0.773-4.777c-0.268-2.621-1.208-5.504-0.469-7.833c2.462-7.757,5.444-15.357,8.43-22.938
			c1.57-3.988-0.784-9.16-5.467-10.658c-3.756-1.201-6.412-2.847-5.614-7.46c0.195-1.129-0.276-2.505-0.792-3.604
			c-2.603-5.547-1.969-9.679,5.164-11.167c-5.547-2.714-7.451-1.15-9.333,7.496c-1.321-1.18-2.422-2.165-3.522-3.15
			c-0.435,0.204-0.869,0.409-1.304,0.613c1.527,3.161,3.056,6.322,4.583,9.482c-0.599,0.331-1.197,0.663-1.795,0.994
			c-0.966-1.684-1.555-3.954-3.004-4.884c-1.409-0.906-3.7-0.439-5.689-0.583c-2.444-4.084-2.444-4.084,2.084-19.108
			c-8.656,8.294-9.205,11.911-3.669,22.337c0.61,1.148,1.094,3.166,0.515,4.019c-5.407,7.945-2.814,16.603-2.393,25.012
			c0.187,3.719-0.658,4.832-8.389,6.752c2.883-10.757-3.332-21.778,3.276-31.107c-1.237-1.789-2.766-3.112-3.147-4.71
			c-1.334-5.575-3.918-11.182,0.24-16.883c0.666-0.913-0.804-3.382-1.283-5.133c-1.754-6.405-0.824-12.342,1.61-18.602
			c1.92-4.935,1.831-10.649,2.869-17.583c-2.524,3.509-4.727,6.018-6.305,8.871c-5.007,9.049-11.354,9.443-17.09,0.52
			c1.617-0.581,3.14-1.128,4.663-1.675c-0.046-0.392-0.093-0.784-0.139-1.176c-4.341,0-8.683,0-14.827,0
			c6.498-4.415,11.521-7.828,17.708-12.033c-3.43-1.654-5.042-2.432-7.036-3.394c0.195-1.583,0.415-3.374,0.672-5.453
			c1.931,0,3.741,0,6.686,0c-2.125-2.253-3.568-3.785-4.271-4.531c0.687-3.334,1.248-6.059,1.809-8.782
			c-0.864-0.304-1.729-0.608-2.595-0.911c-2.173,4.109-4.346,8.218-6.519,12.327c-0.601-0.229-1.201-0.459-1.802-0.69
			c0.603-2.629,1.206-5.26,1.958-8.54c-4.284,0.639-8.585,1.281-14.336,2.138c-2.283-3.474-5.171-7.87-9.246-14.071
			c-0.231,0.845-0.615,3.042-0.865,3.027c-1.927-0.117-4.398-0.106-5.533-1.271c-0.759-0.779,0.234-3.468,0.739-5.216
			c0.496-1.72,1.365-3.332,2.091-5.037c1.511,0.586,4.296,1.667,7.541,2.925c-0.613-4.487-1.138-8.314-1.773-12.96
			c6.698,2.167,9.31,5.771,9.93,11.246c0.682,6.02,1.8,12.199,9.188,13.354c4.218,0.66,8.623,0.12,12.944,0.12
			c0.022-0.548,0.044-1.096,0.066-1.644c-1.416-0.275-2.832-0.551-4.693-0.913c0.76-1.753,1.482-3.418,2.707-6.24
			c-2.685,0.689-4.29,1.102-6.728,1.729c-1.312-3.467-2.681-7.085-4.397-11.621c3.099,0.322,4.645,0.483,6.191,0.645
			c0.333-0.371,0.666-0.741,0.999-1.111c-2.071-1.668-4.143-3.337-6.524-5.256c1.152-1.796,2.104-3.277,3.267-5.088
			c-1.279-0.919-3.137-1.627-3.882-2.959c-0.811-1.444-0.587-3.468,0.531-6.024c1.442,1.593,2.883,3.188,4.325,4.78
			c0.466-0.046,0.933-0.093,1.398-0.139c-0.323-2.373-0.646-4.746-0.864-6.353c4.375-1.465,9.071-3.039,14.722-4.931
			c-3.988-2.753-7.131-4.922-10.642-7.346c7.729-3.402,2.132-7.246,0.932-11.604c1.952-1.038,4.12-2.19,5.822-3.096
			c-0.411-5.68-1.132-11.008-1.094-16.332c0.042-6.064,3.535-8.068,9.246-5.698c1.658,0.69,3.131,1.826,4.704,1.111
			c2.374,0,4.784,0.256,7.113-0.066c2.842-0.394,6.33-0.456,8.252-2.136c2.898-2.532,5.567-3.765,9.343-3.377
			c1.221,0.125,2.616-0.875,3.846-1.523c4.834-2.546,9.508-5.451,14.509-7.601c2.024-0.871,4.736-0.144,5.87-0.144
			c1.25,4.983,2.772,8.821,3.005,12.734c0.16,2.711-0.811,5.989-2.396,8.215c-6.44,9.046-13.513,17.646-19.885,26.74
			c-1.551,2.212-1.321,5.672-1.982,8.911c2.509-0.112,4.816-0.215,7.123-0.319c0.388,0.584,0.775,1.169,1.163,1.753
			c-3.003,2.97-6.005,5.94-9.089,8.989c8.907,3.815,16.086,0.07,23.076-4.769c1.158-0.801,2.468-1.702,3.799-1.884
			c7.967-1.093,15.99-1.806,23.938-3.019c4.674-0.714,9.492-1.538,13.789-3.38c4.141-1.776,7.453-2.029,10.587,1.27
			c3.098,3.259,6.498,6.263,4.919,11.753c-1.938,6.743-0.041,8.507,7.443,7.69c8.04-0.877,8.814-0.31,8.03,6.681
			c-6.424,0-12.932,0-19.33,0c0,3.661,0.349,6.628-0.071,9.483c-0.929,6.298-2.09,12.572-3.46,18.789
			c-0.818,3.712-3.985,7.896-2.999,10.824c2.453,7.279,1.149,11.164-6.497,12.773c-1.895,0.399-3.606,1.666-5.958,2.803
			c4.03,3.46,7.855,6.745,12.929,11.101c-3.069,1.727-6.248,3.319-9.21,5.247c-2.025,1.319-4.036,2.872-5.545,4.732
			C257.56,308.386,255.2,312.07,252.688,315.616z"/>
		<path fill-rule="evenodd" clip-rule="evenodd" d="M55.957,634.529c3.818-2.686,6.818-4.797,9.818-6.907
			c-0.136-0.723-0.271-1.445-0.408-2.168c-1.487,0.231-3.137,0.126-4.434,0.752c-5.662,2.733-11.188,5.748-16.871,8.438
			c-0.556,0.263-1.838-1.012-3.024-1.715c4.435-4.157,8.47-7.938,12.505-11.72c-0.295-0.446-0.591-0.892-0.887-1.337
			c-4.473,1.798-8.887,4.781-13.439,5.013c-3.521,0.182-7.219-3.084-12.16-5.452c5.122-4.545,9.844-8.733,14.564-12.924
			c1.855-1.647,3.706-3.301,5.56-4.952c-0.302-0.563-0.604-1.127-0.905-1.691c-3.663,0.84-7.305,1.795-10.995,2.484
			c-3.616,0.677-7.283,1.083-10.98,1.615c-0.132-5.064,5.896-11.102,9.688-10.864c4.78,0.299,9.594,0.072,14.417,0.072
			c-1.146-4.424-2.038-7.874-2.609-10.078c2.459-3.454,4.341-6.933,7.029-9.597c1.99-1.973,5.029-2.884,7.877-4.417
			c-6.967-7.36-10.291,4.444-15.713,2.991c3.551-3.998,7.697-7.688,10.564-12.19c2.51-3.94,4.98-8.792,4.994-13.249
			c0.027-8.858,0.467-10.905,8.047-13.881c5.531-2.172,6.02-2.976,4.97-9.423c-4.552,1.272-8.979,2.707-13.5,3.718
			c-4.135,0.924-8.741,2.342-9.521-4.516c-0.06-0.53-3.153-1.272-4.622-0.947c-1.826,0.406-3.43,1.819-6.198,3.412
			c0.469-3.043,0.721-4.678,0.997-6.47c-3.651,0-7.28,0-10.543,0c-0.261-2.899-0.496-5.519-0.756-8.413
			c2.925-1.781,6.255-3.81,9.565-5.825c-5.688-7.425-5.338-7.897,9.312-11.721c-0.583-2.083-1.167-4.169-2.054-7.338
			c-8.029,4.44-15.061,0.837-21.668-3.129c4.036-4.521,6.208-4.228,8.949,2.218c1.202-0.584,2.382-1.158,2.921-1.42
			c-1.233-4.501-2.178-8.694-3.596-12.721c-0.508-1.439-2.08-2.569-3.322-3.664c-0.819-0.722-1.917-1.128-2.891-1.676
			c1.229-0.592,2.431-1.255,3.694-1.762c1.86-0.747,3.792-1.317,5.643-2.084c1.72-0.713,3.305-1.859,5.077-2.295
			c1.334-0.328,2.875,0.312,4.316,0.269c10.13-0.302,10.129-0.322,16.362,7.187c0.897-6.767,3.418-10.194,10.855-7.732
			c2.744,0.91,6.617-1.593,10.456-2.674c-4.838-7.484,2.144-9.225,6.146-13.002c2.798-2.639,4.316-6.635,7.078-11.114
			c-8.818,0.254-16.394,5.401-25.602-0.472c3.543-2.873,6.481-5.255,9.419-7.638c0.099,0.27,0.196,0.538,0.294,0.807
			c1.478-2.545,2.954-5.09,4.614-7.95c-6.476-5.275,1.597-10.528,1.135-15.415c2.939-1.715,5.367-3.111,7.772-4.546
			c1.027-0.611,1.975-1.814,3.014-1.879c7.689-0.484,7.693-0.416,11.348-6.97c2.02,6.759,3.594,12.028,5.243,17.546
			c4.621-3.49,3.823-7.206,1.626-11.535c-0.961-1.893-0.609-4.451-0.854-6.708c4.088,0.19,4.481-10.548,11.171-3.563
			c1.9,1.985,5.582,2.264,8.292,3.266c-3.248,4-6.461,7.958-10.419,12.832c9.304,0.27,9.902-0.279,10.821-7.029
			c4.883-2.316,8.948-5.066,13.419-6.154c5.371-1.307,11.081-1.281,16.657-1.607c0.716-0.042,2.083,1.19,2.184,1.958
			c1.394,10.692,10.476,15.347,16.994,22.04c5.594,5.744,9.899,12.21,12.465,20.045c1.93,5.894,1.457,10.18-4.028,13.319
			c-1.306,0.747-2.893,1.076-4.394,1.394c-3.209,0.678-4.997,1.817-4.684,5.847c0.563,7.218-4.104,9.928-10.732,6.787
			c-0.475-0.225-1.148-0.029-2.722-0.029c1.556,1.472,2.485,2.36,3.423,3.239c0.898,0.841,1.805,1.674,3.548,3.287
			c-3.454,0-5.936,0-8.722,0c-0.181,1.165-0.758,2.334-0.414,3.074c3.567,7.657,7.282,15.245,11.261,23.482
			c6.005-6.967,10.858,0.3,16.196,0.339c0.593,0.006,1.154,4.105,1.9,6.959c-5.648,0-10.161,0-13.639,0
			c-6.835,7.448,0.318,12.281,2.394,17.581c4.146,10.589,3.569,20.73,0.401,31.241c-0.773,2.568,0.316,5.677-0.366,8.299
			c-1.478,5.674-3.548,11.193-5.609,17.491c1.21,0.839,2.994,2.077,4.776,3.312c-1.218,4.438-6.198,7.308-11.287,5.602
			c-4.459-1.497-7.651-1.148-9.895,3.538c-0.859-1.169-1.563-2.125-2.194-2.984c-0.56,0.034-0.948,0.035-0.95,0.063
			c-0.37,5.674-4.957,5.3-8.731,6.172c-1.993,0.46-3.991,1.012-5.881,1.782c-3.7,1.508-9.846,0.346-8.251,7.887
			c0.252,1.19-2.611,3.217-4.253,4.596c-3.935,3.307-7.865,6.646-12.042,9.632c-7.403,5.29-15.817,9.472-22.258,15.716
			c-6.139,5.954-14.768,5.576-20.985,10.769c-1.786,1.49-5.333,4.468-8.518,0.696c-0.329-0.389-1.62-0.296-2.29-0.013
			c-3.544,1.497-7.542,4.567-7.906-2.852C59.002,634.751,57.474,634.696,55.957,634.529z"/>
		<path fill-rule="evenodd" clip-rule="evenodd" d="M105.81,211.775c-1.536-3.325-2.713-5.124-3.177-7.088
			c-0.467-1.979-0.97-4.573-0.073-6.067c0.82-1.366,3.489-1.621,6.633-2.884c-0.674-10.256,12.296-12.088,15.981-21.698
			c4.457,4.224,5.086,7.673,2.375,12.59c-2.268,4.111-2.967,9.087-4.408,13.841c3.237,2.198,3.147,9.247-0.916,11.221
			c-3.753,1.823-7.398,3.109-7.543,8.293c-0.034,1.25-1.891,2.816-3.273,3.55c-1.17,0.622-2.867,0.248-4.331,0.315
			c0.155-1.413-0.158-3.14,0.544-4.185C111.851,213.367,111.928,213.419,105.81,211.775z"/>
		<path fill-rule="evenodd" clip-rule="evenodd" d="M163.035,346.098c-1.99-1.461-3.334-2.446-5.72-4.197
			c1.904,4.481,4.554,7.85,4.308,10.989c-0.222,2.828-3.615,5.409-6.454,9.235c-1.14-4.414-1.636-6.246-2.083-8.091
			c-0.437-1.794-0.824-3.6-1.418-6.212c-1.712,2.434-3.188,4.531-5.628,7.998c0.337-4.888,0.562-8.149,0.703-10.203
			c3.23-2.375,5.823-4.28,9.005-6.619c0.321,0.227,1.341,0.948,3.061,2.166c1.117-3.509,1.816-6.929,3.286-9.976
			c1.473-3.05,3.715-5.73,5.62-8.572c0.584,0.25,1.169,0.5,1.753,0.751C167.382,330.741,165.295,338.114,163.035,346.098z"/>
		<path fill-rule="evenodd" clip-rule="evenodd" d="M259.334,36.796c-1.862,2.202-2.893,3.421-4.175,4.938
			c-2.565-1.638-5.161-3.296-8.604-5.493c3.782-1.88,6.443-3.203,10.273-5.106c-3.011-3.706-5.66-6.968-8.464-10.42
			c0.801-1.75,2.16-4.72,3.519-7.689c0.397,0.077,0.795,0.155,1.192,0.232c0.625,3.374,1.25,6.747,1.871,10.11
			c4.079-0.58,7.009,0.43,7.598,4.753c0.762,5.581,1.471,11.176,1.974,16.783c0.393,4.378,0.437,8.786,0.636,13.18
			c-0.661,0.047-1.323,0.095-1.984,0.143c-0.227-3.39-0.174-6.829-0.755-10.156C261.814,44.634,260.599,41.304,259.334,36.796z"/>
		<path fill-rule="evenodd" clip-rule="evenodd" d="M143.862,314.238c5.197-1.785,8.751-3.004,12.304-4.224
			c-0.104-0.411-0.207-0.824-0.311-1.236c-1.594,0.124-3.187,0.25-5.74,0.45c1.531-2.694,2.571-4.525,4.025-7.085
			c-2.673,0.621-4.58,1.065-6.488,1.509c1.838-1.981,3.676-3.964,5.513-5.945c-2.642,0.236-5.284,0.472-8.492,0.759
			c3.333-7.768,3.162-7.572,10.497-1.151c2.15,1.883,5.804,1.946,8.324,3.544c1.547,0.98,3.431,3.648,3.045,4.913
			c-0.51,1.67-3.065,2.746-4.798,4c-1.442,1.045-2.991,1.941-4.446,2.969C153.451,315.454,149.473,316.396,143.862,314.238z"/>
		<path fill-rule="evenodd" clip-rule="evenodd" d="M100.805,241.803c-2.818-1.853-5.647-3.712-9.256-6.084
			c2.18-0.695,3.542-1.249,4.958-1.555c2.635-0.57,5.301-0.996,7.953-1.482c0.439,2.914,2.115,6.39,1.093,8.641
			c-3.574,7.873-0.589,15.479-0.329,23.192c0.04,1.177-0.773,2.381-1.192,3.574c-1.167-0.633-2.791-0.973-3.42-1.953
			C98.186,262.363,98.367,245.664,100.805,241.803z"/>
		<path fill-rule="evenodd" clip-rule="evenodd" d="M226.042,449.218c-1.038-4.384-1.879-7.406-2.425-10.481
			c-0.232-1.306-0.388-3.288,0.349-3.989c3.421-3.254,7.168-6.167,10.803-9.205c2.728,4.732,4.499,9.876,1.083,14.593
			C233.291,443.671,229.368,446.22,226.042,449.218z"/>
		<path fill-rule="evenodd" clip-rule="evenodd" d="M224.723,124.211c1.865,0.999,4.979,2.667,8.093,4.334
			c-0.371,0.678-0.742,1.355-1.113,2.033c-1.719-1.116-3.437-2.23-5.491-3.563c-3.268,4.133-7.563,4.201-10.779,0.653
			c-1.663-1.834-1.559-5.636-1.387-8.498c0.04-0.666,4.064-2.088,5.433-1.437C221.332,118.618,222.395,121.166,224.723,124.211z"/>
		<path fill-rule="evenodd" clip-rule="evenodd" d="M198.683,361.728c-2.29,0.637-4.388,1.979-5.909,1.499
			c-4.156-1.313-7.563-10.001-5.319-13.626c0.677-1.094,4.745-1.661,5.018-1.187C194.621,352.167,196.227,356.229,198.683,361.728z"
			/>
		<path fill-rule="evenodd" clip-rule="evenodd" d="M383.826,636.646c5.719-3.034,9.34-9.419,17.646-4.486
			c-2.098,2.942-3.663,7.45-6.168,8.052C392.33,640.927,388.548,638.281,383.826,636.646z"/>
		<path fill-rule="evenodd" clip-rule="evenodd" d="M218.382,139.209c-1.596-1.944-3.192-3.891-4.787-5.835
			c0.306-0.538,0.613-1.075,0.92-1.614c1.915,0.875,4.144,1.414,5.608,2.775c0.688,0.64-0.088,2.86-0.201,4.364
			C219.408,139.003,218.896,139.105,218.382,139.209z"/>
	</g>
</g>
<g id="Layer_3" display="none">
</g>
<g id="Layer_2">
	<path opacity="0.5" d="M431.605,533.416c-5.938,0-11.172,4.813-11.691,10.75c-0.787,9,9.352,16,8.301,28
		c1.051-12,12.412-19,13.199-28C441.934,538.229,437.543,533.416,431.605,533.416z M437.208,544.43
		c-0.224,0.721-0.63,1.349-1.14,1.917c-0.611,0.681-1.323,1.244-2.063,1.77c-0.867,0.613-1.741,1.218-2.554,1.909
		c-0.382,0.323-0.764,0.648-1.125,0.997c-0.119,0.112-0.234,0.226-0.32,0.378c-0.02-0.031-0.035-0.046-0.043-0.063
		c-0.194-0.433-0.508-0.771-0.837-1.101c-0.616-0.609-1.304-1.14-1.976-1.688c-0.693-0.565-1.368-1.147-1.953-1.826
		c-0.607-0.703-1.008-1.514-1.105-2.476c-0.072-0.731-0.068-1.478,0.182-2.196c0.359-1.032,1.07-1.799,2.064-2.312
		c0.537-0.275,1.088-0.375,1.658-0.36c0.223,0.006,0.447-0.004,0.664,0.035c0.57,0.104,1.021,0.409,1.422,0.789
		c0.152,0.146,0.284,0.31,0.404,0.483c0.176,0.26,0.307,0.539,0.343,0.864c0.005,0.042,0.017,0.085,0.029,0.155
		c0.06-0.109,0.108-0.191,0.15-0.275c0.267-0.521,0.614-0.979,1.093-1.333c0.783-0.578,1.645-0.805,2.553-0.695
		c1.236,0.146,2.1,0.787,2.597,1.895c0.145,0.323,0.188,0.679,0.205,1.037C437.487,543.035,437.422,543.737,437.208,544.43z"/>
	<path fill-rule="evenodd" clip-rule="evenodd" fill="#FFFFFF" d="M427.91,533.416c-5.938,0-10.75,4.813-10.751,10.75
		c0,9,10.751,16,10.751,28c0-12,10.75-19,10.75-28C438.66,538.229,433.848,533.416,427.91,533.416z M434.477,544.43
		c-0.16,0.721-0.512,1.349-0.972,1.917c-0.552,0.681-1.215,1.244-1.909,1.77c-0.813,0.613-1.635,1.218-2.387,1.909
		c-0.354,0.323-0.707,0.648-1.038,0.997c-0.108,0.112-0.215,0.226-0.286,0.378c-0.023-0.031-0.039-0.046-0.049-0.063
		c-0.232-0.433-0.575-0.771-0.934-1.101c-0.669-0.609-1.403-1.14-2.123-1.688c-0.742-0.565-1.469-1.147-2.112-1.826
		c-0.669-0.703-1.142-1.514-1.323-2.476c-0.136-0.731-0.197-1.478-0.01-2.196c0.27-1.032,0.913-1.799,1.861-2.312
		c0.514-0.275,1.056-0.375,1.628-0.36c0.223,0.006,0.446-0.004,0.667,0.035c0.579,0.104,1.057,0.409,1.49,0.789
		c0.166,0.146,0.312,0.31,0.446,0.483c0.199,0.26,0.354,0.539,0.419,0.864c0.009,0.042,0.023,0.085,0.043,0.155
		c0.05-0.109,0.092-0.191,0.126-0.275c0.222-0.521,0.528-0.979,0.976-1.333c0.733-0.578,1.574-0.805,2.493-0.695
		c1.248,0.146,2.168,0.787,2.762,1.895c0.173,0.323,0.248,0.679,0.296,1.037C434.634,543.035,434.63,543.737,434.477,544.43z"/>
</g>
</svg>
